<svg data-v-423bf9ae="" xmlns="http://www.w3.org/2000/svg" viewBox="0 0 134.53572793274742 60" class="font"><!----><!----><!----><g data-v-423bf9ae="" id="a983e653-f1b4-4701-9902-a38d81ed1e59" fill="white" transform="matrix(5.869316101074219,0,0,5.869316101074219,2.063434600830078,-21.94115447998047)"><path d="M-0.35 3.74L3.51 3.74L3.51 4.02L2.31 4.48L4.21 11.82L4.27 11.82L6.75 3.74L7.63 3.74L9.93 11.67L9.98 11.67L11.90 4.50L10.71 4.02L10.71 3.74L13.99 3.74L13.99 4.02L12.80 4.51L10.21 13.96L9.56 13.96L6.97 6.08L6.93 6.08L4.49 13.96L3.75 13.96L0.91 4.51L-0.35 4.02L-0.35 3.74ZM21.98 6.11L21.98 6.11L21.98 6.11Q21.98 6.92 21.54 7.49L21.54 7.49L21.54 7.49Q21.10 8.05 20.36 8.37L20.36 8.37L20.36 8.45L20.36 8.45Q21.40 8.76 21.98 9.42L21.98 9.42L21.98 9.42Q22.57 10.08 22.57 11.02L22.57 11.02L22.57 11.02Q22.57 12.34 21.60 13.08L21.60 13.08L21.60 13.08Q20.64 13.82 18.84 13.82L18.84 13.82L14.59 13.82L14.59 13.54L15.85 13.05L15.85 4.51L14.59 4.02L14.59 3.74L18.35 3.74L18.35 3.74Q20.27 3.74 21.12 4.35L21.12 4.35L21.12 4.35Q21.98 4.97 21.98 6.11ZM19.02 8.84L17.18 8.84L17.18 13.10L19.02 13.10L19.02 13.10Q19.70 13.10 20.19 12.78L20.19 12.78L20.19 12.78Q20.68 12.46 20.90 11.99L20.90 11.99L20.90 11.99Q21.12 11.53 21.12 10.99L21.12 10.99L21.12 10.99Q21.12 10.60 20.99 10.22L20.99 10.22L20.99 10.22Q20.85 9.84 20.60 9.53L20.60 9.53L20.60 9.53Q20.34 9.22 19.93 9.03L19.93 9.03L19.93 9.03Q19.52 8.84 19.02 8.84L19.02 8.84ZM17.18 4.47L17.18 8.11L18.70 8.11L18.70 8.11Q19.62 8.11 20.09 7.57L20.09 7.57L20.09 7.57Q20.56 7.03 20.56 6.22L20.56 6.22L20.56 6.22Q20.56 5.38 20.09 4.93L20.09 4.93L20.09 4.93Q19.63 4.47 18.55 4.47L18.55 4.47L17.18 4.47Z"></path></g><!----><!----></svg>